<?xml version="1.0" encoding="utf-8"?>
<!-- Generator: Adobe Illustrator 13.0.0, SVG Export Plug-In . SVG Version: 6.00 Build 14948)  -->
<!DOCTYPE svg PUBLIC "-//W3C//DTD SVG 1.1//EN" "http://www.w3.org/Graphics/SVG/1.1/DTD/svg11.dtd">
<svg version="1.1" id="Ebene_1" xmlns="http://www.w3.org/2000/svg" xmlns:xlink="http://www.w3.org/1999/xlink" x="0px" y="0px"
	 width="179.457px" height="54.938px" viewBox="0 0 179.457 54.938" style="enable-background:new 0 0 179.457 54.938;"
	 xml:space="preserve">
<style type="text/css">
<![CDATA[
	.st0{fill:#1A1817;stroke:#221E22;stroke-width:0.4;}
	.st1{fill:#1A1817;}
	.st2{fill:#F67534;}
	.st3{fill:#1A1817;stroke:#221E22;stroke-width:0.25;}
	.st4{fill:#1A1817;stroke:#221E22;stroke-width:0.75;}
	.st5{fill:none;stroke:#221E22;stroke-width:0.4;}
	.st6{fill:#221E22;stroke:#221E22;stroke-width:0.4;}
	.st7{fill:#221E22;stroke:#221E22;stroke-width:0.5;}
	.st8{fill:#221E22;stroke:#221E22;stroke-width:0.25;}
	.st9{fill:none;stroke:#221E22;stroke-width:0.25;}
]]>
</style>
<path class="st3" d="M4.462,29.144c0.549-3.962,0.706-7.878,0.471-11.741C4.693,13.54,3.962,9.7,2.741,5.886
	c-0.126-0.324-0.126-0.597,0-0.823c0.125-0.224,0.298-0.354,0.524-0.391c0.223-0.035,0.448,0.037,0.672,0.226
	c0.224,0.187,0.397,0.517,0.522,0.989c0.35,2.044,0.642,4.095,0.881,6.154c0.235,2.056,0.5,4.131,0.804,6.225
	c0.622,0.499,1.276,0.61,1.962,0.336c0.684-0.274,1.376-0.773,2.074-1.495c0.696-0.726,1.378-1.588,2.038-2.598
	c0.659-1.011,1.284-1.99,1.871-2.937c0.584-0.947,1.109-1.796,1.57-2.54c0.46-0.749,0.843-1.223,1.14-1.422
	c0.549-0.399,0.825-0.43,0.825-0.095c0,0.337-0.188,0.88-0.562,1.628c-0.374,0.746-0.871,1.625-1.498,2.638
	c-0.622,1.009-1.274,1.993-1.96,2.954c-0.687,0.96-1.347,1.814-1.982,2.562c-0.637,0.747-1.142,1.244-1.517,1.496
	c-0.049,0.049-0.142,0.109-0.28,0.184c-0.136,0.076-0.28,0.163-0.429,0.263c-0.149,0.101-0.302,0.195-0.449,0.281
	c-0.151,0.088-0.248,0.144-0.3,0.168v0.298c0,0.027,0.087,0.094,0.265,0.208c0.174,0.11,0.379,0.241,0.616,0.392
	c0.235,0.149,0.481,0.301,0.729,0.451c0.249,0.146,0.45,0.274,0.6,0.373c0.472,0.25,1.053,0.585,1.738,1.008
	c0.685,0.427,1.421,0.867,2.207,1.329c0.787,0.46,1.593,0.905,2.431,1.329c0.833,0.424,1.662,0.773,2.486,1.046
	c0.822,0.274,1.601,0.435,2.337,0.483c0.736,0.054,1.381-0.072,1.944-0.371c0.56-0.299,1.014-0.81,1.363-1.531
	c0.348-0.725,0.538-1.721,0.563-2.993h0.747c0.124,0,0.224,0.174,0.299,0.522c0.075,0.349,0.106,0.78,0.094,1.291
	c-0.014,0.512-0.094,1.061-0.243,1.645c-0.149,0.587-0.399,1.124-0.748,1.606c-0.348,0.488-0.817,0.883-1.401,1.182
	c-0.588,0.293-1.317,0.411-2.188,0.333c-1.224-0.1-2.494-0.406-3.815-0.935c-1.321-0.522-2.629-1.138-3.925-1.852
	c-1.295-0.708-2.548-1.463-3.76-2.262c-1.209-0.797-2.311-1.508-3.309-2.131c-0.074-0.05-0.242-0.103-0.504-0.169
	c-0.262-0.058-0.418-0.102-0.468-0.128H6.439c-0.15,1.471-0.229,2.97-0.241,4.506c-0.015,1.533-0.183,3-0.507,4.395
	c-0.025,0.022-0.11,0.044-0.262,0.068c-0.151,0.024-0.305,0.036-0.469,0.019c-0.163-0.007-0.299-0.064-0.411-0.163
	C4.442,29.532,4.413,29.368,4.462,29.144z"/>
<path class="st3" d="M27.988,28.68c-0.5-0.501-0.897-1.261-1.198-2.28c-0.299-1.023-0.501-2.183-0.616-3.48
	c-0.109-1.296-0.13-2.675-0.057-4.131c0.078-1.46,0.243-2.879,0.508-4.265c0.261-1.384,0.61-2.674,1.044-3.869
	c0.437-1.199,0.975-2.192,1.611-2.974c0.634-0.788,1.356-1.297,2.165-1.533c0.814-0.238,1.716-0.094,2.715,0.43
	c0.348,0.202,0.714,0.538,1.103,1.012c0.385,0.471,0.753,1,1.102,1.586c0.348,0.589,0.658,1.173,0.916,1.759
	c0.259,0.587,0.454,1.079,0.581,1.477c0.023,0.125,0.028,0.506,0.018,1.14c-0.013,0.636-0.033,1.406-0.055,2.302
	c-0.026,0.898-0.021,1.888,0.018,2.973c0.039,1.083,0.123,2.146,0.263,3.18c0.136,1.034,0.354,1.995,0.654,2.88
	c0.3,0.886,0.696,1.581,1.194,2.095c0.5,0.509,1.129,0.785,1.893,0.819c0.759,0.04,1.687-0.265,2.782-0.914
	c0.402-0.347,0.637-0.691,0.712-1.027c0.074-0.341,0.114-0.627,0.114-0.863s0.023-0.394,0.074-0.466
	c0.05-0.076,0.274-0.013,0.673,0.186c0.498,0.648,0.668,1.34,0.505,2.074c-0.164,0.736-0.524,1.384-1.084,1.945
	c-0.56,0.562-1.266,0.956-2.112,1.194c-0.848,0.237-1.716,0.183-2.603-0.166c-0.882-0.347-1.722-1.057-2.521-2.131
	c-0.798-1.072-1.435-2.631-1.908-4.674c-0.149,0.426-0.378,0.946-0.689,1.571c-0.313,0.624-0.681,1.245-1.104,1.871
	c-0.428,0.622-0.904,1.208-1.441,1.756c-0.536,0.552-1.092,0.959-1.666,1.231c-0.572,0.276-1.166,0.381-1.772,0.316
	C29.191,29.643,28.586,29.301,27.988,28.68z"/>
<path class="st2" d="M28.326,26.325c0.422,0.895,0.921,1.381,1.495,1.458c0.574,0.073,1.16-0.152,1.758-0.675
	c0.598-0.522,1.188-1.283,1.777-2.283c0.586-0.994,1.085-2.125,1.494-3.38c0.413-1.26,0.724-2.584,0.938-3.966
	c0.208-1.384,0.246-2.712,0.109-3.983c-0.138-1.271-0.468-2.432-0.992-3.479c-0.521-1.046-1.32-1.87-2.393-2.468
	c-0.022-0.025-0.068-0.037-0.129-0.037c-0.062,0-0.119,0-0.167,0c-0.777,0.349-1.449,0.945-2.023,1.794
	c-0.57,0.847-1.065,1.843-1.473,2.993c-0.414,1.146-0.73,2.378-0.955,3.701s-0.352,2.616-0.373,3.889
	c-0.025,1.27,0.036,2.475,0.185,3.607C27.725,24.635,27.979,25.575,28.326,26.325z"/>
<path class="st8" d="M58.207,29.055c-0.999-0.574-1.777-1.156-2.34-1.74c-0.557-0.587-1.091-1.163-1.589-1.723
	s-1.07-1.094-1.72-1.604c-0.647-0.516-1.545-0.971-2.692-1.368c-0.174,0.5-0.312,1.085-0.411,1.756
	c-0.098,0.675-0.182,1.354-0.243,2.04c-0.062,0.685-0.109,1.334-0.15,1.946c-0.036,0.608-0.082,1.077-0.129,1.402
	c-0.327,0.396-0.637,0.569-0.935,0.523c-0.301-0.057-0.569-0.209-0.807-0.468c-0.237-0.268-0.434-0.573-0.594-0.938
	c-0.164-0.361-0.261-0.64-0.283-0.836c0.572-1.35,0.964-2.708,1.175-4.078c0.212-1.372,0.312-2.779,0.302-4.227
	c-0.015-1.448-0.093-2.941-0.242-4.49c-0.151-1.544-0.274-3.164-0.375-4.86c0.122-0.199,0.29-0.362,0.504-0.486
	c0.214-0.125,0.443-0.137,0.69-0.04c0.327-0.374,0.75-0.792,1.274-1.252c0.522-0.462,1.089-0.883,1.703-1.27
	c0.611-0.387,1.244-0.705,1.904-0.955c0.66-0.25,1.28-0.355,1.853-0.317c0.573,0.037,1.079,0.255,1.512,0.653
	c0.437,0.401,0.758,1.048,0.957,1.944c0.199,1.297,0.161,2.505-0.112,3.629c-0.276,1.122-0.718,2.187-1.331,3.197
	c-0.61,1.008-1.374,1.956-2.296,2.841c-0.925,0.886-1.949,1.737-3.069,2.562c-0.075,0.15-0.044,0.293,0.092,0.431
	c0.137,0.136,0.312,0.263,0.526,0.372c0.212,0.112,0.426,0.206,0.656,0.283c0.222,0.076,0.385,0.122,0.485,0.15
	c0.499,0.347,1.046,0.815,1.644,1.403c0.598,0.586,1.229,1.185,1.889,1.795c0.661,0.609,1.335,1.163,2.02,1.662
	c0.686,0.499,1.368,0.815,2.04,0.955c0.673,0.135,1.33,0.042,1.961-0.278c0.637-0.326,1.242-1.011,1.815-2.059h0.597
	c0.102,0.749-0.018,1.44-0.354,2.076c-0.335,0.635-0.812,1.127-1.42,1.474c-0.611,0.346-1.316,0.538-2.114,0.564
	C59.803,29.751,59.005,29.522,58.207,29.055z"/>
<path class="st2" d="M49.568,16.75c0.024,0.099,0.046,0.28,0.074,0.539c0.023,0.265,0.056,0.539,0.092,0.825
	c0.038,0.287,0.064,0.555,0.093,0.805c0.026,0.25,0.039,0.424,0.039,0.523c1.071-0.423,2.005-1.085,2.805-1.982
	c0.796-0.897,1.442-1.865,1.942-2.899c0.499-1.032,0.83-2.067,0.988-3.102c0.165-1.033,0.158-1.89-0.018-2.56
	c-0.171-0.675-0.54-1.092-1.102-1.253c-0.561-0.163-1.316,0.092-2.263,0.765c-0.896,0.648-1.553,1.278-1.961,1.891
	c-0.413,0.61-0.689,1.245-0.826,1.905c-0.135,0.663-0.167,1.36-0.092,2.098C49.419,15.036,49.493,15.852,49.568,16.75z"/>
<path class="st3" d="M63.29,29.161c-0.049-0.147-0.086-0.648-0.111-1.509c-0.027-0.861-0.042-1.901-0.056-3.123
	c-0.011-1.22-0.005-2.55,0.018-3.984c0.026-1.434,0.058-2.778,0.098-4.038c0.036-1.258,0.084-2.35,0.146-3.272
	c0.065-0.921,0.134-1.508,0.207-1.757c0.149-0.076,0.313-0.076,0.484,0c0.176,0.073,0.329,0.174,0.468,0.301
	c0.135,0.124,0.255,0.275,0.355,0.448c0.102,0.176,0.151,0.324,0.151,0.449v16.488c0,0.277-0.074,0.48-0.224,0.619
	c-0.149,0.137-0.33,0.205-0.542,0.205c-0.211,0-0.411-0.068-0.597-0.205C63.499,29.643,63.364,29.44,63.29,29.161z"/>
<path class="st8" d="M63.308,5.783c-0.03-0.09-0.057-0.223-0.069-0.396c-0.018-0.172-0.022-0.357-0.022-0.561
	s0.004-0.391,0.022-0.561c0.013-0.171,0.041-0.289,0.069-0.352c0.249-0.124,0.53-0.231,0.841-0.328
	c0.31-0.094,0.637-0.107,0.982-0.043c0.533,0.684,0.864,1.237,1.003,1.659c0.141,0.419,0.15,0.747,0.026,0.981
	c-0.131,0.232-0.34,0.374-0.636,0.42c-0.296,0.048-0.599,0.041-0.911-0.024c-0.309-0.062-0.601-0.165-0.864-0.304
	C63.484,6.136,63.338,5.972,63.308,5.783z"/>
<path class="st3" d="M67.443,29.764c-0.052-0.051-0.112-0.152-0.189-0.302c-0.073-0.148-0.123-0.251-0.148-0.301
	c0.075-0.325,0.157-1.051,0.241-2.185c0.087-1.133,0.19-2.448,0.304-3.947c0.109-1.493,0.243-3.051,0.408-4.672
	c0.16-1.619,0.342-3.068,0.541-4.34c0.202-1.269,0.437-2.249,0.716-2.935c0.271-0.686,0.583-0.853,0.933-0.503
	c0.748,0.547,1.441,1.24,2.089,2.076c0.651,0.836,1.277,1.738,1.874,2.708c0.602,0.973,1.18,1.978,1.739,3.012
	c0.562,1.034,1.146,2.019,1.759,2.955c0.61,0.936,1.258,1.783,1.945,2.541c0.685,0.764,1.424,1.355,2.226,1.777h0.263
	c0.048-0.598,0.107-1.34,0.164-2.226c0.063-0.884,0.131-1.848,0.209-2.897c0.07-1.048,0.146-2.127,0.221-3.237
	c0.075-1.106,0.169-2.189,0.282-3.251c0.114-1.059,0.23-2.038,0.354-2.935c0.128-0.898,0.267-1.658,0.414-2.281
	c0.023-0.05,0.08-0.154,0.169-0.319c0.085-0.161,0.187-0.324,0.299-0.485c0.112-0.164,0.231-0.293,0.355-0.393
	c0.127-0.101,0.25-0.101,0.374,0l1.76,1.794c0.075,0.076,0.031,0.233-0.131,0.468c-0.165,0.239-0.352,0.501-0.579,0.785
	c-0.224,0.287-0.448,0.562-0.672,0.822c-0.227,0.262-0.35,0.457-0.376,0.581c-0.17,0.649-0.326,1.429-0.446,2.338
	c-0.127,0.913-0.227,1.88-0.304,2.917c-0.075,1.037-0.137,2.1-0.185,3.196c-0.05,1.1-0.093,2.162-0.133,3.196
	c-0.035,1.038-0.062,2.017-0.075,2.939c-0.007,0.92-0.032,1.718-0.055,2.394c-0.898-0.027-1.758-0.303-2.579-0.825
	c-0.824-0.522-1.615-1.217-2.376-2.077c-0.758-0.861-1.496-1.83-2.205-2.917c-0.713-1.083-1.396-2.181-2.059-3.291
	c-0.662-1.108-1.304-2.198-1.921-3.271c-0.626-1.071-1.226-2.019-1.798-2.841h-0.337c-0.102,0-0.181,0.269-0.246,0.805
	c-0.06,0.535-0.116,1.228-0.166,2.074c-0.048,0.847-0.098,1.814-0.152,2.898c-0.049,1.085-0.118,2.169-0.203,3.255
	c-0.088,1.085-0.196,2.121-0.318,3.104c-0.129,0.981-0.274,1.815-0.45,2.489c-0.172,0.673-0.385,1.144-0.634,1.415
	C68.091,30.151,67.793,30.109,67.443,29.764z"/>
<path class="st3" d="M99.994,28.833c0-0.475,0.02-1.109,0.055-1.908c0.04-0.797,0.069-1.671,0.092-2.617
	c0.027-0.948,0.041-1.92,0.041-2.918c0-0.994-0.023-1.931-0.074-2.804c-0.049-0.874-0.134-1.631-0.249-2.282
	c-0.107-0.646-0.263-1.083-0.463-1.308c-1.568,0.122-2.766,0.109-3.594-0.041c-0.818-0.149-1.232-0.348-1.249-0.595
	c-0.011-0.251,0.407-0.519,1.249-0.805c0.853-0.285,2.166-0.491,3.932-0.618c0-0.298,0.007-0.826,0.021-1.589
	c0.013-0.76,0.017-1.565,0.017-2.413c0-0.847-0.004-1.646-0.017-2.393c-0.014-0.748-0.021-1.272-0.021-1.573
	c-0.022-0.173-0.062-0.41-0.11-0.708c-0.052-0.301-0.098-0.618-0.149-0.955c-0.052-0.336-0.091-0.676-0.114-1.01
	c-0.022-0.336-0.014-0.615,0.039-0.842c0.049-0.299,0.181-0.505,0.393-0.617c0.21-0.111,0.428-0.162,0.652-0.15
	c0.225,0.013,0.433,0.087,0.619,0.224c0.188,0.136,0.281,0.316,0.281,0.54v11.183c0,0.25,0.307,0.368,0.937,0.354
	c0.622-0.013,1.379-0.066,2.278-0.166c0.896-0.101,0.146-0.057,1.146-0.244c0.98-0.11,1.813-0.22,2.524-0.168
	c0.709,0.051,1.188,0.217,1.439,0.506c0.246,0.285,0.1,0.778-0.45,1.477c-0.054,0.051-0.15,0.11-0.3,0.188
	c-0.146,0.07-0.251,0.11-0.298,0.11c-1.35-0.048-2.766-0.062-4.265-0.04c-1.497,0.026-1.216,0.141-2.563,0.339
	c-0.449,0.075-0.692,0.493-0.729,1.252c-0.037,0.761,0.024,1.688,0.186,2.787c0.164,1.097,0.351,2.262,0.561,3.498
	c0.213,1.232,0.341,2.361,0.389,3.381c0.057,1.023-0.053,1.854-0.313,2.488c-0.259,0.633-0.793,0.875-1.589,0.726
	c-0.048,0-0.109-0.033-0.186-0.108C100.03,28.945,99.994,28.881,99.994,28.833z"/>
<path class="st3" d="M124.608,27.675c0.149-4.64-0.05-8.372-0.583-11.201c-0.536-2.829-1.258-4.857-2.168-6.077
	c-0.911-1.221-1.916-1.696-3.012-1.421c-1.095,0.276-2.138,1.177-3.121,2.713c-0.983,1.533-1.835,3.634-2.542,6.3
	c-0.712,2.667-1.118,5.797-1.219,9.387c-0.104,0.3-0.245,0.441-0.451,0.431c-0.197-0.013-0.397-0.109-0.596-0.283
	c-0.199-0.175-0.373-0.392-0.52-0.656c-0.151-0.261-0.229-0.489-0.229-0.691c0-0.099,0.021-0.335,0.061-0.707
	c0.036-0.375,0.075-0.778,0.109-1.199c0.039-0.425,0.065-0.825,0.09-1.196c0.027-0.373,0.04-0.61,0.04-0.712
	c0-0.223,0.008-0.58,0.024-1.065c0.012-0.486,0.015-1.043,0.015-1.665c0-0.622,0-1.276,0-1.964c0-0.686,0-1.331,0-1.946
	c0-0.609-0.003-1.164-0.015-1.663c-0.017-0.499-0.024-0.873-0.024-1.123c0-0.125-0.013-0.394-0.04-0.803
	c-0.024-0.411-0.045-0.85-0.07-1.309c-0.023-0.46-0.054-0.91-0.093-1.349c-0.036-0.434-0.068-0.755-0.097-0.953
	c0-0.125-0.029-0.418-0.095-0.878c-0.062-0.46-0.118-0.96-0.186-1.498c-0.058-0.535-0.115-1.032-0.169-1.494
	c-0.047-0.463-0.085-0.754-0.109-0.879c-0.073-0.799,0.023-1.265,0.301-1.402c0.273-0.137,0.658,0.142,1.153,0.839
	c0.202,2.046,0.34,4.059,0.415,6.04c0.074,1.981,0.238,3.982,0.485,6.003c0.225-0.749,0.506-1.541,0.843-2.375
	c0.335-0.833,0.735-1.625,1.197-2.375c0.458-0.748,1.01-1.407,1.643-1.98c0.638-0.573,1.366-0.974,2.188-1.199
	c1.097-0.324,2.049-0.362,2.84-0.111c0.799,0.251,1.48,0.691,2.038,1.328c0.564,0.637,1.018,1.426,1.368,2.374
	c0.349,0.949,0.639,1.972,0.857,3.069c0.229,1.097,0.389,2.225,0.487,3.383c0.104,1.16,0.189,2.264,0.264,3.31
	c0.072,1.048,0.138,2.001,0.187,2.864c0.053,0.859,0.123,1.549,0.227,2.075c0.073,0.398,0.262,0.628,0.557,0.691
	c0.302,0.063,0.573,0.126,0.825,0.188c0.248,0.062,0.394,0.197,0.43,0.41c0.041,0.212-0.168,0.652-0.618,1.328
	c-0.171,0.245-0.418,0.437-0.728,0.559c-0.313,0.122-0.625,0.181-0.936,0.165c-0.311-0.008-0.572-0.121-0.787-0.33
	C124.633,28.414,124.559,28.098,124.608,27.675z"/>
<g>
	<g>
		<path class="st1" d="M144.309,23.073c-0.194,0.098-0.519,0.318-0.969,0.652c-0.446,0.339-0.983,0.747-1.605,1.219
			c-0.624,0.472-1.262,0.896-1.91,1.27c-0.647,0.375-1.285,0.636-1.904,0.787c-0.621,0.148-1.149,0.072-1.567-0.227
			c-0.582-0.397-1.017-0.807-1.315-1.234c-0.299-0.426-0.508-0.871-0.637-1.348c-0.123-0.471-0.184-0.978-0.184-1.516
			c0-0.534,0.024-1.125,0.073-1.773c0.027-0.55,0.203-1.01,0.543-1.386c0.341-0.375,0.743-0.743,1.219-1.103
			c0.47-0.362,0.971-0.74,1.491-1.142c0.527-0.398,0.998-0.891,1.429-1.48c0.416-0.585,0.757-1.3,1.002-2.15
			c0.253-0.846,0.323-1.881,0.227-3.104c-0.048-0.075-0.141-0.178-0.28-0.316c-0.142-0.137-0.281-0.283-0.432-0.43
			c-0.149-0.149-0.295-0.295-0.43-0.431c-0.134-0.137-0.244-0.229-0.32-0.28c-0.744-0.326-1.375-0.375-1.887-0.15
			c-0.511,0.224-0.948,0.61-1.311,1.159c-0.359,0.549-0.661,1.202-0.894,1.964c-0.24,0.759-0.438,1.514-0.604,2.26
			c-0.159,0.752-0.315,1.43-0.464,2.042c-0.15,0.61-0.312,1.044-0.484,1.289c-0.053,0.073-0.22,0.184-0.507,0.336
			c-0.289,0.149-0.504,0.222-0.653,0.222c-1.071,0.174-1.884,0.361-2.43,0.562c-0.552,0.201-0.894,0.392-1.034,0.581
			c-0.135,0.186-0.117,0.361,0.06,0.525c0.179,0.16,0.467,0.286,0.883,0.369c0.405,0.088,0.892,0.141,1.438,0.152
			c0.551,0.011,1.111-0.034,1.682-0.13c0.074,0.874,0.142,1.733,0.188,2.58c0.05,0.848,0.186,1.646,0.414,2.394
			c0.222,0.747,0.579,1.436,1.064,2.057c0.484,0.622,1.204,1.133,2.152,1.534c1.044,0.446,1.984,0.581,2.815,0.392
			c0.844-0.19,1.583-0.569,2.231-1.139c0.644-0.575,1.208-1.272,1.68-2.097c0.476-0.823,0.887-1.645,1.232-2.47
			C144.514,23.124,144.514,22.974,144.309,23.073z M135.006,16.007c0.067-0.375,0.122-0.627,0.142-0.75
			c0.327-1.148,0.692-2.038,1.088-2.672c0.403-0.638,0.779-1.066,1.139-1.292c0.365-0.224,0.678-0.268,0.937-0.131
			c0.264,0.137,0.395,0.408,0.395,0.804c0,0.4-0.154,0.916-0.468,1.552c-0.313,0.635-0.842,1.327-1.592,2.076
			c-0.051,0.05-0.145,0.129-0.281,0.241c-0.135,0.113-0.28,0.226-0.427,0.338c-0.146,0.11-0.298,0.224-0.452,0.334
			c-0.146,0.116-0.261,0.195-0.335,0.245c-0.021,0.024-0.064,0.041-0.132,0.041c-0.061,0-0.103-0.016-0.127-0.041
			C134.892,16.627,134.924,16.379,135.006,16.007z"/>
	</g>
	<g>
		<path class="st9" d="M144.309,23.073c-0.194,0.098-0.519,0.318-0.969,0.652c-0.446,0.339-0.983,0.747-1.605,1.219
			c-0.624,0.472-1.262,0.896-1.91,1.27c-0.647,0.375-1.285,0.636-1.904,0.787c-0.621,0.148-1.149,0.072-1.567-0.227
			c-0.582-0.397-1.017-0.807-1.315-1.234c-0.299-0.426-0.508-0.871-0.637-1.348c-0.123-0.471-0.184-0.978-0.184-1.516
			c0-0.534,0.024-1.125,0.073-1.773c0.027-0.55,0.203-1.01,0.543-1.386c0.341-0.375,0.743-0.743,1.219-1.103
			c0.47-0.362,0.971-0.74,1.491-1.142c0.527-0.398,0.998-0.891,1.429-1.48c0.416-0.585,0.757-1.3,1.002-2.15
			c0.253-0.846,0.323-1.881,0.227-3.104c-0.048-0.075-0.141-0.178-0.28-0.316c-0.142-0.137-0.281-0.283-0.432-0.43
			c-0.149-0.149-0.295-0.295-0.43-0.431c-0.134-0.137-0.244-0.229-0.32-0.28c-0.744-0.326-1.375-0.375-1.887-0.15
			c-0.511,0.224-0.948,0.61-1.311,1.159c-0.359,0.549-0.661,1.202-0.894,1.964c-0.24,0.759-0.438,1.514-0.604,2.26
			c-0.159,0.752-0.315,1.43-0.464,2.042c-0.15,0.61-0.312,1.044-0.484,1.289c-0.053,0.073-0.22,0.184-0.507,0.336
			c-0.289,0.149-0.504,0.222-0.653,0.222c-1.071,0.174-1.884,0.361-2.43,0.562c-0.552,0.201-0.894,0.392-1.034,0.581
			c-0.135,0.186-0.117,0.361,0.06,0.525c0.179,0.16,0.467,0.286,0.883,0.369c0.405,0.088,0.892,0.141,1.438,0.152
			c0.551,0.011,1.111-0.034,1.682-0.13c0.074,0.874,0.142,1.733,0.188,2.58c0.05,0.848,0.186,1.646,0.414,2.394
			c0.222,0.747,0.579,1.436,1.064,2.057c0.484,0.622,1.204,1.133,2.152,1.534c1.044,0.446,1.984,0.581,2.815,0.392
			c0.844-0.19,1.583-0.569,2.231-1.139c0.644-0.575,1.208-1.272,1.68-2.097c0.476-0.823,0.887-1.645,1.232-2.47
			C144.514,23.124,144.514,22.974,144.309,23.073z M135.006,16.007c0.067-0.375,0.122-0.627,0.142-0.75
			c0.327-1.148,0.692-2.038,1.088-2.672c0.403-0.638,0.779-1.066,1.139-1.292c0.365-0.224,0.678-0.268,0.937-0.131
			c0.264,0.137,0.395,0.408,0.395,0.804c0,0.4-0.154,0.916-0.468,1.552c-0.313,0.635-0.842,1.327-1.592,2.076
			c-0.051,0.05-0.145,0.129-0.281,0.241c-0.135,0.113-0.28,0.226-0.427,0.338c-0.146,0.11-0.298,0.224-0.452,0.334
			c-0.146,0.116-0.261,0.195-0.335,0.245c-0.021,0.024-0.064,0.041-0.132,0.041c-0.061,0-0.103-0.016-0.127-0.041
			C134.892,16.627,134.924,16.379,135.006,16.007z"/>
	</g>
</g>
<path class="st3" d="M145.808,28.234c-0.052-0.148-0.086-0.654-0.107-1.515c-0.024-0.861-0.045-1.901-0.062-3.123
	c-0.015-1.222-0.007-2.55,0.021-3.983c0.024-1.432,0.054-2.778,0.092-4.038c0.041-1.26,0.09-2.35,0.151-3.272
	c0.061-0.921,0.133-1.508,0.206-1.76c0.15-0.073,0.31-0.073,0.488,0c0.171,0.077,0.329,0.176,0.469,0.301
	c0.132,0.125,0.251,0.276,0.351,0.448c0.105,0.174,0.153,0.325,0.153,0.45v16.493c0,0.273-0.077,0.479-0.228,0.614
	c-0.152,0.14-0.33,0.205-0.54,0.205c-0.215,0-0.41-0.065-0.601-0.205C146.018,28.714,145.884,28.506,145.808,28.234z"/>
<path class="st8" d="M145.679,4.925c-0.029-0.102-0.061-0.247-0.072-0.435c-0.021-0.189-0.03-0.393-0.03-0.617
	c0-0.223,0.011-0.431,0.03-0.617c0.015-0.189,0.043-0.317,0.072-0.387c0.278-0.136,0.584-0.258,0.929-0.36
	c0.34-0.104,0.701-0.122,1.078-0.051c0.586,0.755,0.948,1.364,1.105,1.825c0.158,0.463,0.163,0.821,0.028,1.079
	c-0.142,0.258-0.371,0.414-0.697,0.462c-0.325,0.054-0.66,0.045-0.999-0.023c-0.345-0.066-0.662-0.181-0.957-0.333
	C145.877,5.312,145.713,5.13,145.679,4.925z"/>
<path class="st3" d="M155.643,29.316c-0.223-0.126-0.528-0.28-0.916-0.467c-0.388-0.184-0.791-0.403-1.217-0.652
	c-0.42-0.25-0.827-0.519-1.212-0.805c-0.389-0.287-0.705-0.596-0.957-0.936c-0.249-0.335-0.385-0.692-0.408-1.065
	c-0.022-0.372,0.109-0.761,0.408-1.158c0.051-0.052,0.223,0.081,0.505,0.393c0.288,0.312,0.655,0.684,1.105,1.123
	c0.449,0.435,0.96,0.884,1.529,1.344c0.58,0.462,1.162,0.813,1.764,1.049c0.597,0.232,1.197,0.309,1.791,0.226
	c0.602-0.09,1.149-0.459,1.652-1.107c0.196-0.273,0.339-0.592,0.426-0.954c0.091-0.362,0.119-0.728,0.099-1.104
	c-0.027-0.375-0.088-0.742-0.17-1.102c-0.09-0.363-0.205-0.692-0.354-0.992c-0.328-0.697-0.833-1.407-1.519-2.132
	c-0.682-0.726-1.42-1.459-2.203-2.207c-0.786-0.747-1.554-1.508-2.3-2.283c-0.75-0.77-1.333-1.556-1.759-2.354
	c-0.426-0.799-0.632-1.603-0.616-2.412c0.008-0.81,0.38-1.64,1.104-2.489c0.572-0.649,1.286-0.972,2.151-0.972
	c0.855,0,1.704,0.187,2.539,0.561c0.839,0.375,1.57,0.855,2.207,1.442c0.633,0.584,1.028,1.15,1.18,1.699
	c0.073,0.225,0.1,0.468,0.073,0.729c-0.025,0.261-0.101,0.479-0.227,0.655c-0.129,0.174-0.304,0.293-0.54,0.353
	c-0.239,0.064-0.546,0.02-0.915-0.129c-0.427-0.15-0.756-0.474-0.989-0.973c-0.241-0.5-0.493-0.99-0.756-1.478
	c-0.263-0.488-0.594-0.872-1.008-1.16c-0.413-0.286-1.016-0.304-1.813-0.058c-0.9,0.301-1.381,0.756-1.461,1.366
	c-0.067,0.612,0.11,1.31,0.546,2.094c0.433,0.785,1.034,1.607,1.798,2.467c0.757,0.863,1.534,1.678,2.32,2.449
	c0.781,0.778,1.484,1.469,2.109,2.078c0.623,0.609,1.006,1.055,1.158,1.329c0.298,0.572,0.566,1.289,0.807,2.148
	c0.234,0.861,0.312,1.701,0.238,2.524c-0.074,0.821-0.346,1.542-0.825,2.148c-0.471,0.613-1.271,0.953-2.391,1.026
	c-0.152,0.026-0.354,0.046-0.618,0.059c-0.258,0.014-0.531,0.021-0.803,0.021c-0.273,0-0.554-0.026-0.84-0.075
	C156.049,29.493,155.818,29.418,155.643,29.316z"/>
<path class="st3" d="M169.52,29.316c-0.225-0.126-0.528-0.28-0.917-0.467c-0.39-0.184-0.792-0.403-1.216-0.652
	c-0.424-0.25-0.825-0.519-1.215-0.805c-0.387-0.286-0.703-0.596-0.955-0.936c-0.247-0.335-0.385-0.692-0.406-1.065
	c-0.027-0.372,0.11-0.761,0.406-1.158c0.05-0.052,0.222,0.081,0.508,0.393c0.291,0.312,0.654,0.684,1.103,1.123
	c0.445,0.435,0.96,0.884,1.533,1.344c0.571,0.462,1.159,0.813,1.761,1.049c0.594,0.232,1.197,0.309,1.794,0.226
	c0.595-0.09,1.147-0.459,1.647-1.107c0.196-0.273,0.344-0.592,0.424-0.954c0.093-0.362,0.12-0.728,0.099-1.104
	c-0.024-0.375-0.081-0.742-0.167-1.102c-0.088-0.363-0.206-0.692-0.355-0.992c-0.326-0.697-0.831-1.407-1.514-2.132
	c-0.687-0.726-1.422-1.459-2.208-2.207c-0.781-0.747-1.552-1.508-2.298-2.283c-0.751-0.77-1.336-1.556-1.761-2.354
	c-0.424-0.799-0.632-1.603-0.616-2.412c0.007-0.81,0.381-1.64,1.102-2.489c0.574-0.649,1.292-0.972,2.151-0.972
	s1.706,0.187,2.546,0.561c0.835,0.375,1.565,0.855,2.206,1.442c0.632,0.584,1.027,1.15,1.174,1.699
	c0.074,0.225,0.099,0.468,0.074,0.729c-0.024,0.261-0.103,0.479-0.224,0.655c-0.128,0.174-0.304,0.293-0.545,0.353
	c-0.236,0.064-0.541,0.02-0.913-0.129c-0.426-0.15-0.758-0.474-0.989-0.973c-0.238-0.5-0.492-0.99-0.752-1.478
	c-0.26-0.488-0.594-0.872-1.011-1.16c-0.409-0.286-1.018-0.304-1.81-0.058c-0.903,0.301-1.386,0.756-1.463,1.366
	c-0.072,0.612,0.108,1.31,0.545,2.094s1.031,1.607,1.799,2.467c0.756,0.863,1.534,1.678,2.316,2.449
	c0.786,0.778,1.487,1.469,2.109,2.078c0.624,0.609,1.012,1.055,1.164,1.329c0.295,0.572,0.563,1.289,0.802,2.148
	c0.236,0.861,0.314,1.701,0.239,2.524c-0.071,0.821-0.349,1.542-0.823,2.148c-0.471,0.613-1.269,0.953-2.389,1.026
	c-0.155,0.026-0.358,0.046-0.621,0.059c-0.263,0.014-0.526,0.021-0.801,0.021c-0.272,0-0.553-0.026-0.84-0.075
	C169.923,29.493,169.694,29.418,169.52,29.316z"/>
<g>
	<path class="st0" d="M20.489,53.936c-0.497-0.371-0.862-0.79-1.104-1.241c-0.239-0.449-0.395-0.929-0.473-1.433
		c-0.073-0.502-0.073-1.023,0-1.559c0.08-0.54,0.197-1.082,0.348-1.627c0.104-0.342,0.201-0.753,0.294-1.232
		c0.09-0.473,0.208-0.955,0.34-1.44c0.138-0.489,0.301-0.94,0.49-1.357c0.186-0.422,0.418-0.747,0.689-0.987
		c0.171-0.15,0.396-0.265,0.665-0.348c0.274-0.072,0.554-0.116,0.847-0.124c0.29-0.012,0.571,0,0.847,0.014
		c0.269,0.011,0.494,0.032,0.664,0.055c0.75,0.048,1.331,0.297,1.74,0.748c0.412,0.455,0.684,1.014,0.82,1.682
		c0.137,0.66,0.155,1.408,0.066,2.221c-0.099,0.826-0.282,1.631-0.566,2.426c-0.282,0.792-0.635,1.536-1.061,2.238
		c-0.429,0.696-0.892,1.269-1.398,1.701c-0.501,0.434-1.03,0.692-1.583,0.776C21.558,54.534,21.017,54.362,20.489,53.936z"/>
	<path class="st2" d="M20.869,52.526c0.43,0.344,0.888,0.422,1.383,0.237c0.496-0.193,0.97-0.538,1.421-1.056
		c0.453-0.51,0.855-1.13,1.215-1.85c0.357-0.729,0.613-1.454,0.769-2.181c0.152-0.723,0.176-1.396,0.071-2.019
		c-0.098-0.626-0.373-1.091-0.814-1.398c-0.632-0.423-1.229-0.56-1.792-0.396c-0.565,0.164-1.059,0.497-1.485,1.005
		c-0.424,0.497-0.779,1.127-1.062,1.876c-0.282,0.754-0.463,1.502-0.551,2.253c-0.084,0.756-0.063,1.448,0.067,2.101
		C20.219,51.747,20.478,52.225,20.869,52.526z"/>
	<path class="st0" d="M7.793,53.756c-0.441-0.34-0.858-0.861-1.243-1.556c-0.384-0.704-0.704-1.482-0.96-2.343
		c-0.254-0.869-0.436-1.766-0.538-2.704c-0.101-0.939-0.11-1.818-0.024-2.646s0.285-1.557,0.603-2.179
		c0.312-0.62,0.761-1.054,1.343-1.292c0.478-0.185,0.892-0.15,1.242,0.114c0.35,0.271,0.638,0.616,0.858,1.05
		c0.217,0.438,0.371,0.887,0.447,1.344c0.078,0.461,0.072,0.801-0.013,1.02c-0.086,0.21-0.25,0.225-0.498,0.046
		c-0.247-0.177-0.586-0.696-1.013-1.549c-0.188-0.394-0.389-0.523-0.601-0.396c-0.215,0.131-0.41,0.434-0.593,0.911
		c-0.18,0.474-0.321,1.073-0.435,1.806c-0.107,0.724-0.17,1.479-0.177,2.263c-0.009,0.784,0.054,1.551,0.177,2.293
		c0.13,0.738,0.347,1.368,0.654,1.894c0.307,0.518,0.72,0.877,1.241,1.069c0.52,0.201,1.166,0.145,1.933-0.162
		c0.152-0.07,0.401-0.283,0.741-0.64c0.342-0.361,0.715-0.757,1.115-1.204c0.401-0.443,0.797-0.871,1.191-1.282
		c0.392-0.407,0.719-0.686,0.985-0.843c0.262-0.152,0.43-0.132,0.498,0.068c0.067,0.187-0.025,0.683-0.283,1.467
		c-0.188,0.596-0.524,1.195-1.007,1.804c-0.491,0.607-1.045,1.115-1.667,1.507c-0.623,0.405-1.284,0.644-1.98,0.72
		C9.088,54.406,8.424,54.219,7.793,53.756z"/>
	<path class="st0" d="M16.441,53.756c-0.064-0.271-0.118-0.65-0.151-1.128c-0.033-0.476-0.051-1.007-0.051-1.595
		s0.004-1.21,0.014-1.855c0.01-0.646,0.018-1.282,0.037-1.895c0.017-0.615,0.021-1.189,0.013-1.719
		c-0.009-0.524-0.031-0.963-0.063-1.303c-0.017-0.257-0.038-0.638-0.064-1.137c-0.027-0.508-0.053-1.073-0.09-1.699
		c-0.032-0.633-0.071-1.303-0.112-1.999c-0.043-0.7-0.074-1.366-0.09-2.01c-0.016-0.636-0.027-1.231-0.027-1.766
		c0-0.539,0.018-0.951,0.052-1.239c0.258-0.228,0.463-0.175,0.627,0.162c0.162,0.331,0.286,0.809,0.369,1.435
		c0.087,0.624,0.143,1.326,0.166,2.11c0.027,0.784,0.042,1.521,0.042,2.227c0,0.7-0.009,1.288-0.027,1.762
		c-0.013,0.483-0.023,0.729-0.023,0.742c0.088,1.611,0.143,3.192,0.167,4.749c0.023,1.566,0.107,3.138,0.244,4.725
		c0.169,0.322,0.26,0.672,0.27,1.035c0.009,0.369-0.046,0.662-0.155,0.885c-0.11,0.219-0.267,0.316-0.474,0.28
		C16.902,54.491,16.683,54.231,16.441,53.756z"/>
	<path class="st0" d="M43.444,53.936c-0.92-0.543-1.664-1.195-2.225-1.943c-0.564-0.757-1.052-1.545-1.463-2.382
		c-0.407-0.832-0.8-1.699-1.175-2.582c-0.371-0.893-0.833-1.741-1.38-2.562c-0.052-0.082-0.122-0.082-0.208,0
		c-0.34,0.616-0.625,1.256-0.854,1.932c-0.231,0.677-0.458,1.356-0.675,2.028c-0.226,0.696-0.47,1.366-0.731,2.026
		c-0.267,0.67-0.588,1.294-0.965,1.87c-0.166,0.236-0.422,0.455-0.752,0.642c-0.331,0.188-0.65,0.287-0.948,0.291
		c-0.299,0.012-0.532-0.101-0.703-0.329c-0.173-0.232-0.173-0.624,0-1.191c-0.461-1.282-0.855-2.504-1.18-3.676
		c-0.323-1.165-0.675-2.365-1.047-3.591c-0.104-0.311-0.258-0.666-0.459-1.065c-0.204-0.397-0.375-0.805-0.514-1.212
		c-0.137-0.413-0.196-0.809-0.176-1.191c0.016-0.383,0.195-0.698,0.536-0.961c0.132-0.099,0.322,0.095,0.563,0.59
		c0.237,0.497,0.502,1.142,0.792,1.94c0.292,0.806,0.58,1.696,0.871,2.678c0.29,0.981,0.564,1.904,0.816,2.778
		c0.257,0.863,0.477,1.605,0.652,2.221c0.18,0.62,0.296,0.972,0.346,1.058c0.358-0.242,0.681-0.636,0.974-1.182
		c0.29-0.546,0.56-1.165,0.806-1.855c0.246-0.688,0.479-1.406,0.69-2.148c0.216-0.74,0.427-1.423,0.627-2.047
		c0.206-0.628,0.413-1.142,0.614-1.564c0.206-0.413,0.425-0.643,0.652-0.674c0.236-0.036,0.486,0.156,0.757,0.587
		c0.272,0.43,0.582,1.172,0.922,2.222c0.476,1.522,1.096,2.957,1.856,4.315c0.76,1.357,1.753,2.546,2.982,3.568
		c0.407,0.239,0.732,0.195,0.971-0.124c0.243-0.327,0.408-0.82,0.511-1.473c0.105-0.66,0.144-1.431,0.117-2.301
		c-0.022-0.883-0.086-1.742-0.18-2.586c-0.094-0.847-0.213-1.613-0.358-2.308c-0.142-0.69-0.303-1.188-0.475-1.498
		c-0.168-0.253-0.317-0.428-0.459-0.522c-0.137-0.096-0.232-0.188-0.28-0.282c-0.049-0.089-0.039-0.217,0.04-0.386
		c0.072-0.16,0.252-0.433,0.522-0.83c0.307-0.217,0.604-0.156,0.885,0.21c0.284,0.354,0.538,0.894,0.767,1.611
		c0.228,0.717,0.428,1.559,0.588,2.532c0.167,0.971,0.273,1.96,0.321,2.969c0.052,1.005,0.044,1.975-0.027,2.903
		c-0.064,0.929-0.217,1.717-0.446,2.354c-0.228,0.64-0.55,1.087-0.959,1.332C44.569,54.377,44.061,54.316,43.444,53.936z"/>
	<path class="st0" d="M48.076,53.936c-0.033-0.033-0.075-0.104-0.13-0.202c-0.049-0.101-0.084-0.169-0.098-0.203
		c0.049-0.227,0.103-0.724,0.166-1.496c0.058-0.778,0.125-1.678,0.203-2.704c0.075-1.023,0.168-2.087,0.283-3.2
		c0.109-1.107,0.233-2.099,0.37-2.965c0.134-0.869,0.299-1.547,0.483-2.017c0.194-0.463,0.4-0.582,0.643-0.337
		c0.511,0.369,0.99,0.845,1.433,1.414c0.443,0.574,0.868,1.194,1.279,1.862c0.411,0.662,0.809,1.346,1.189,2.054
		c0.385,0.704,0.785,1.379,1.208,2.028c0.415,0.636,0.857,1.214,1.327,1.737c0.469,0.52,0.975,0.919,1.524,1.214h0.177
		c0.037-0.413,0.072-0.921,0.117-1.522c0.044-0.61,0.089-1.27,0.139-1.986c0.054-0.716,0.105-1.452,0.154-2.211
		c0.052-0.758,0.115-1.505,0.194-2.23c0.073-0.723,0.153-1.393,0.243-2.007c0.082-0.611,0.177-1.133,0.283-1.559
		c0.013-0.034,0.054-0.106,0.113-0.221c0.059-0.11,0.125-0.221,0.207-0.331c0.077-0.112,0.156-0.202,0.241-0.272
		c0.085-0.062,0.17-0.062,0.254,0l1.203,1.233c0.053,0.049,0.021,0.159-0.089,0.321c-0.108,0.162-0.243,0.339-0.396,0.54
		c-0.152,0.194-0.306,0.379-0.461,0.558c-0.152,0.181-0.24,0.311-0.256,0.401c-0.117,0.443-0.222,0.975-0.306,1.597
		c-0.087,0.624-0.154,1.284-0.206,1.996c-0.048,0.706-0.091,1.437-0.125,2.185c-0.038,0.755-0.064,1.484-0.087,2.19
		c-0.033,0.705-0.047,1.379-0.055,2.011c-0.009,0.63-0.022,1.174-0.034,1.635c-0.618-0.018-1.21-0.204-1.771-0.562
		c-0.562-0.359-1.103-0.83-1.626-1.418c-0.522-0.592-1.022-1.256-1.508-1.996c-0.487-0.741-0.954-1.495-1.408-2.251
		c-0.454-0.755-0.892-1.509-1.317-2.241c-0.427-0.734-0.838-1.378-1.23-1.946h-0.231c-0.064,0-0.125,0.185-0.165,0.556
		c-0.044,0.361-0.083,0.837-0.114,1.417c-0.037,0.581-0.069,1.241-0.105,1.981c-0.037,0.742-0.079,1.489-0.141,2.226
		c-0.062,0.748-0.13,1.452-0.218,2.126c-0.085,0.67-0.188,1.238-0.306,1.701c-0.12,0.458-0.265,0.782-0.435,0.971
		C48.521,54.203,48.315,54.173,48.076,53.936z"/>
	<path class="st0" d="M62.585,53.529c-0.034-0.102-0.061-0.455-0.073-1.037c-0.02-0.592-0.033-1.302-0.042-2.135
		c-0.009-0.84-0.004-1.749,0.013-2.729c0.019-0.981,0.042-1.904,0.064-2.761c0.024-0.865,0.059-1.613,0.104-2.243
		s0.088-1.033,0.14-1.197c0.102-0.053,0.214-0.053,0.331,0c0.12,0.05,0.228,0.114,0.323,0.202c0.092,0.08,0.175,0.187,0.243,0.309
		c0.066,0.115,0.106,0.221,0.106,0.302v11.292c0,0.185-0.057,0.329-0.157,0.422c-0.102,0.092-0.228,0.139-0.371,0.139
		c-0.145,0-0.282-0.047-0.41-0.139C62.728,53.86,62.637,53.715,62.585,53.529z"/>
	<path class="st7" d="M63.043,36.845c-0.016-0.054-0.025-0.122-0.035-0.212c-0.008-0.093-0.014-0.195-0.014-0.299
		c0-0.11,0.005-0.205,0.014-0.295c0.01-0.091,0.02-0.148,0.035-0.187c0.132-0.062,0.28-0.123,0.443-0.175
		c0.165-0.044,0.336-0.057,0.522-0.019c0.276,0.359,0.454,0.65,0.526,0.875c0.075,0.223,0.079,0.39,0.014,0.518
		c-0.065,0.12-0.178,0.194-0.332,0.221c-0.155,0.022-0.318,0.021-0.479-0.016c-0.167-0.032-0.317-0.085-0.455-0.159
		C63.138,37.028,63.061,36.938,63.043,36.845z"/>
	<path class="st0" d="M65.43,53.936c-0.036-0.033-0.077-0.104-0.131-0.202c-0.047-0.101-0.081-0.169-0.102-0.203
		c0.055-0.227,0.107-0.724,0.169-1.496c0.059-0.778,0.126-1.678,0.205-2.704c0.074-1.023,0.168-2.087,0.279-3.2
		c0.113-1.107,0.233-2.099,0.37-2.965c0.134-0.869,0.3-1.547,0.486-2.017c0.188-0.463,0.403-0.582,0.641-0.337
		c0.511,0.369,0.991,0.845,1.432,1.414c0.447,0.574,0.874,1.194,1.279,1.862c0.413,0.662,0.81,1.346,1.194,2.054
		c0.38,0.704,0.784,1.379,1.205,2.028c0.417,0.636,0.859,1.214,1.327,1.737c0.469,0.52,0.979,0.919,1.521,1.214h0.18
		c0.039-0.413,0.073-0.921,0.116-1.522c0.043-0.61,0.087-1.27,0.137-1.986c0.06-0.716,0.108-1.452,0.154-2.211
		c0.055-0.758,0.118-1.505,0.197-2.23c0.072-0.723,0.155-1.393,0.239-2.007c0.083-0.611,0.178-1.133,0.28-1.559
		c0.019-0.034,0.059-0.106,0.119-0.221c0.061-0.11,0.129-0.221,0.202-0.331c0.08-0.112,0.156-0.202,0.243-0.272
		c0.085-0.062,0.174-0.062,0.258,0l1.198,1.233c0.056,0.049,0.023,0.159-0.089,0.321c-0.106,0.162-0.241,0.339-0.392,0.54
		c-0.154,0.194-0.312,0.379-0.461,0.558c-0.153,0.181-0.239,0.311-0.256,0.401c-0.12,0.443-0.225,0.975-0.305,1.597
		c-0.088,0.624-0.157,1.284-0.206,1.996c-0.056,0.706-0.095,1.437-0.131,2.185c-0.035,0.755-0.062,1.484-0.086,2.19
		c-0.029,0.705-0.043,1.379-0.052,2.011c-0.007,0.63-0.022,1.174-0.039,1.635c-0.613-0.018-1.206-0.204-1.765-0.562
		c-0.566-0.359-1.106-0.83-1.627-1.418c-0.517-0.592-1.023-1.256-1.508-1.996c-0.488-0.741-0.959-1.495-1.41-2.251
		c-0.453-0.757-0.889-1.509-1.315-2.241c-0.428-0.734-0.837-1.378-1.235-1.946h-0.226c-0.067,0-0.125,0.185-0.169,0.556
		c-0.038,0.361-0.083,0.837-0.115,1.417c-0.03,0.581-0.065,1.241-0.104,1.981c-0.029,0.742-0.077,1.489-0.138,2.226
		c-0.063,0.748-0.132,1.452-0.22,2.126c-0.083,0.67-0.184,1.238-0.306,1.701c-0.121,0.458-0.263,0.782-0.435,0.971
		C65.871,54.203,65.669,54.173,65.43,53.936z"/>
	<path class="st0" d="M99.59,53.22c-0.069-0.265-0.117-0.626-0.148-1.089c-0.035-0.462-0.051-0.974-0.051-1.539
		c0-0.572,0-1.166,0.011-1.796c0.006-0.626,0.021-1.235,0.04-1.821c0.016-0.594,0.018-1.149,0.012-1.657
		c-0.009-0.51-0.027-0.931-0.062-1.262c-0.02-0.243-0.037-0.612-0.064-1.096c-0.021-0.489-0.054-1.037-0.086-1.645
		c-0.03-0.612-0.064-1.252-0.111-1.927c-0.033-0.674-0.066-1.326-0.086-1.939c-0.014-0.618-0.023-1.186-0.023-1.703
		c0-0.521,0.022-0.917,0.053-1.202c0.242-0.215,0.447-0.156,0.603,0.167c0.161,0.32,0.28,0.78,0.358,1.38
		c0.083,0.598,0.136,1.28,0.163,2.038c0.021,0.757,0.035,1.473,0.035,2.148c0,0.679-0.01,1.242-0.026,1.706
		c-0.013,0.459-0.023,0.7-0.023,0.716c0.08,1.549,0.138,3.073,0.16,4.578c0.026,1.507,0.105,3.025,0.239,4.556
		c0.16,0.315,0.243,0.646,0.254,1.006c0.011,0.349-0.035,0.636-0.149,0.849c-0.104,0.212-0.258,0.309-0.455,0.274
		C100.033,53.93,99.814,53.677,99.59,53.22z"/>
	<g>
		<g>
			<path class="st1" d="M112.233,49.589c-0.131,0.068-0.343,0.204-0.641,0.429c-0.296,0.225-0.654,0.494-1.064,0.807
				c-0.411,0.31-0.83,0.586-1.257,0.841c-0.426,0.24-0.849,0.419-1.259,0.516c-0.416,0.101-0.759,0.048-1.037-0.146
				c-0.379-0.267-0.669-0.538-0.863-0.814c-0.2-0.283-0.34-0.58-0.424-0.891c-0.077-0.312-0.122-0.646-0.122-0.999
				c0-0.352,0.02-0.747,0.054-1.178c0.013-0.363,0.135-0.666,0.354-0.915c0.225-0.241,0.486-0.483,0.803-0.725
				c0.311-0.242,0.644-0.495,0.987-0.752c0.346-0.267,0.661-0.59,0.938-0.977c0.274-0.386,0.5-0.861,0.669-1.421
				c0.164-0.558,0.214-1.244,0.146-2.053c-0.03-0.05-0.097-0.112-0.186-0.206c-0.089-0.095-0.184-0.187-0.285-0.285
				c-0.099-0.096-0.196-0.198-0.285-0.285c-0.084-0.084-0.16-0.148-0.209-0.183c-0.49-0.212-0.911-0.248-1.244-0.102
				c-0.336,0.148-0.631,0.407-0.863,0.766c-0.241,0.359-0.435,0.795-0.592,1.29c-0.162,0.506-0.285,1.006-0.396,1.503
				c-0.108,0.489-0.215,0.941-0.309,1.34c-0.102,0.407-0.207,0.69-0.32,0.855c-0.035,0.05-0.146,0.122-0.336,0.223
				c-0.186,0.104-0.332,0.146-0.43,0.146c-0.713,0.114-1.244,0.24-1.604,0.373c-0.367,0.13-0.595,0.263-0.68,0.379
				c-0.092,0.128-0.077,0.238,0.034,0.354c0.114,0.102,0.31,0.187,0.583,0.238c0.269,0.059,0.587,0.095,0.95,0.103
				c0.364,0.012,0.731-0.017,1.113-0.085c0.044,0.574,0.085,1.148,0.116,1.704c0.034,0.556,0.129,1.081,0.277,1.572
				c0.146,0.5,0.381,0.955,0.701,1.362c0.321,0.411,0.795,0.752,1.419,1.016c0.694,0.293,1.312,0.389,1.864,0.265
				c0.554-0.129,1.047-0.38,1.473-0.759c0.427-0.377,0.793-0.838,1.109-1.38c0.314-0.548,0.586-1.09,0.816-1.631
				C112.366,49.625,112.366,49.525,112.233,49.589z M106.086,44.918c0.046-0.242,0.078-0.407,0.096-0.489
				c0.216-0.759,0.455-1.349,0.718-1.768c0.265-0.421,0.517-0.71,0.754-0.854c0.236-0.148,0.446-0.179,0.618-0.086
				c0.174,0.09,0.258,0.274,0.258,0.533c0,0.263-0.102,0.605-0.307,1.023c-0.208,0.425-0.553,0.881-1.047,1.372
				c-0.036,0.032-0.098,0.086-0.189,0.16c-0.088,0.074-0.185,0.15-0.282,0.223c-0.102,0.07-0.197,0.148-0.293,0.223
				c-0.104,0.07-0.177,0.129-0.229,0.167c-0.018,0.012-0.047,0.016-0.081,0.016c-0.043,0-0.067-0.004-0.09-0.016
				C106.01,45.325,106.035,45.171,106.086,44.918z"/>
		</g>
		<g>
			<path class="st5" d="M112.233,49.589c-0.131,0.068-0.343,0.204-0.641,0.429c-0.296,0.225-0.654,0.494-1.064,0.807
				c-0.411,0.31-0.83,0.586-1.257,0.841c-0.426,0.24-0.849,0.419-1.259,0.516c-0.416,0.101-0.759,0.048-1.037-0.146
				c-0.379-0.267-0.669-0.538-0.863-0.814c-0.2-0.283-0.34-0.58-0.424-0.891c-0.077-0.312-0.122-0.646-0.122-0.999
				c0-0.352,0.02-0.747,0.054-1.178c0.013-0.363,0.135-0.666,0.354-0.915c0.225-0.241,0.486-0.483,0.803-0.725
				c0.311-0.242,0.644-0.495,0.987-0.752c0.346-0.267,0.661-0.59,0.938-0.977c0.274-0.386,0.5-0.861,0.669-1.421
				c0.164-0.558,0.214-1.244,0.146-2.053c-0.03-0.05-0.097-0.112-0.186-0.206c-0.089-0.095-0.184-0.187-0.285-0.285
				c-0.099-0.096-0.196-0.198-0.285-0.285c-0.084-0.084-0.16-0.148-0.209-0.183c-0.49-0.212-0.911-0.248-1.244-0.102
				c-0.336,0.148-0.631,0.407-0.863,0.766c-0.241,0.359-0.435,0.795-0.592,1.29c-0.162,0.506-0.285,1.006-0.396,1.503
				c-0.108,0.489-0.215,0.941-0.309,1.34c-0.102,0.407-0.207,0.69-0.32,0.855c-0.035,0.05-0.146,0.122-0.336,0.223
				c-0.186,0.104-0.332,0.146-0.43,0.146c-0.713,0.114-1.244,0.24-1.604,0.373c-0.367,0.13-0.595,0.263-0.68,0.379
				c-0.092,0.128-0.077,0.238,0.034,0.354c0.114,0.102,0.31,0.187,0.583,0.238c0.269,0.059,0.587,0.095,0.95,0.103
				c0.364,0.012,0.731-0.017,1.113-0.085c0.044,0.574,0.085,1.148,0.116,1.704c0.034,0.556,0.129,1.081,0.277,1.572
				c0.146,0.5,0.381,0.955,0.701,1.362c0.321,0.411,0.795,0.752,1.419,1.016c0.694,0.293,1.312,0.389,1.864,0.265
				c0.554-0.129,1.047-0.38,1.473-0.759c0.427-0.377,0.793-0.838,1.109-1.38c0.314-0.548,0.586-1.09,0.816-1.631
				C112.366,49.625,112.366,49.525,112.233,49.589z M106.086,44.918c0.046-0.242,0.078-0.407,0.096-0.489
				c0.216-0.759,0.455-1.349,0.718-1.768c0.265-0.421,0.517-0.71,0.754-0.854c0.236-0.148,0.446-0.179,0.618-0.086
				c0.174,0.09,0.258,0.274,0.258,0.533c0,0.263-0.102,0.605-0.307,1.023c-0.208,0.425-0.553,0.881-1.047,1.372
				c-0.036,0.032-0.098,0.086-0.189,0.16c-0.088,0.074-0.185,0.15-0.282,0.223c-0.102,0.07-0.197,0.148-0.293,0.223
				c-0.104,0.07-0.177,0.129-0.229,0.167c-0.018,0.012-0.047,0.016-0.081,0.016c-0.043,0-0.067-0.004-0.09-0.016
				C106.01,45.325,106.035,45.171,106.086,44.918z"/>
		</g>
	</g>
	<path class="st0" d="M123.322,52.626c0.104-3.062-0.023-5.525-0.381-7.395c-0.354-1.87-0.834-3.206-1.435-4.017
		c-0.604-0.807-1.263-1.119-1.987-0.939c-0.721,0.185-1.409,0.778-2.061,1.79c-0.654,1.015-1.212,2.399-1.676,4.163
		c-0.473,1.763-0.745,3.829-0.809,6.199c-0.068,0.198-0.167,0.293-0.294,0.284c-0.133-0.006-0.267-0.066-0.395-0.19
		c-0.133-0.11-0.25-0.251-0.347-0.427c-0.096-0.171-0.148-0.327-0.148-0.46c0-0.064,0.013-0.227,0.039-0.47
		c0.019-0.246,0.048-0.505,0.069-0.79c0.023-0.279,0.047-0.538,0.064-0.788c0.016-0.245,0.022-0.403,0.022-0.47
		c0-0.15,0.005-0.386,0.016-0.702c0.012-0.321,0.012-0.69,0.012-1.102c0-0.407,0-0.841,0-1.294s0-0.879,0-1.284
		c0-0.407,0-0.772-0.012-1.104c-0.011-0.324-0.016-0.571-0.016-0.734c0-0.09-0.01-0.261-0.022-0.539
		c-0.018-0.267-0.034-0.554-0.054-0.86c-0.015-0.302-0.032-0.599-0.062-0.89c-0.021-0.288-0.041-0.501-0.059-0.63
		c0-0.084-0.022-0.278-0.063-0.581c-0.039-0.302-0.078-0.63-0.127-0.987c-0.037-0.359-0.078-0.681-0.104-0.987
		c-0.033-0.309-0.06-0.497-0.075-0.588c-0.05-0.52,0.018-0.828,0.193-0.923c0.182-0.086,0.443,0.103,0.769,0.554
		c0.131,1.354,0.222,2.681,0.272,3.994c0.051,1.307,0.152,2.627,0.319,3.965c0.146-0.5,0.335-1.018,0.56-1.571
		c0.219-0.55,0.481-1.075,0.785-1.568c0.306-0.494,0.67-0.929,1.089-1.309c0.42-0.377,0.901-0.64,1.443-0.788
		c0.724-0.215,1.354-0.241,1.879-0.074c0.526,0.16,0.979,0.457,1.345,0.875c0.371,0.421,0.673,0.938,0.902,1.568
		c0.23,0.628,0.422,1.304,0.566,2.022c0.152,0.727,0.256,1.475,0.323,2.241c0.064,0.764,0.123,1.492,0.173,2.185
		c0.048,0.692,0.089,1.322,0.124,1.888c0.031,0.571,0.078,1.025,0.148,1.37c0.052,0.263,0.176,0.421,0.371,0.459
		c0.195,0.039,0.375,0.079,0.541,0.125c0.165,0.038,0.263,0.126,0.287,0.271c0.025,0.139-0.113,0.43-0.409,0.875
		c-0.118,0.164-0.276,0.287-0.479,0.371c-0.21,0.086-0.41,0.114-0.62,0.11c-0.206-0.01-0.381-0.082-0.52-0.223
		C123.346,53.119,123.289,52.907,123.322,52.626z"/>
	<path class="st6" d="M134.118,52.917c-0.664-0.371-1.176-0.759-1.546-1.138c-0.371-0.39-0.721-0.771-1.05-1.144
		c-0.326-0.369-0.707-0.725-1.136-1.062c-0.425-0.339-1.021-0.636-1.779-0.898c-0.111,0.325-0.207,0.716-0.271,1.161
		c-0.065,0.443-0.116,0.894-0.161,1.347c-0.039,0.451-0.07,0.875-0.1,1.284c-0.022,0.405-0.056,0.71-0.084,0.925
		c-0.219,0.265-0.421,0.377-0.616,0.341c-0.205-0.028-0.377-0.133-0.535-0.301c-0.159-0.181-0.286-0.382-0.39-0.624
		c-0.111-0.232-0.17-0.417-0.188-0.552c0.383-0.893,0.638-1.785,0.78-2.692c0.138-0.904,0.203-1.838,0.196-2.786
		c-0.01-0.959-0.065-1.95-0.163-2.966c-0.098-1.023-0.182-2.095-0.247-3.214c0.083-0.132,0.195-0.238,0.336-0.321
		c0.137-0.08,0.292-0.092,0.459-0.023c0.212-0.243,0.495-0.52,0.839-0.827c0.345-0.303,0.715-0.585,1.122-0.838
		c0.403-0.259,0.828-0.47,1.26-0.632c0.436-0.163,0.85-0.235,1.224-0.211c0.378,0.024,0.716,0.173,0.999,0.436
		c0.287,0.259,0.5,0.684,0.631,1.281c0.134,0.854,0.106,1.649-0.074,2.394c-0.182,0.746-0.467,1.448-0.877,2.112
		c-0.408,0.671-0.91,1.292-1.521,1.882c-0.608,0.58-1.283,1.146-2.022,1.688c-0.051,0.103-0.025,0.194,0.062,0.285
		c0.091,0.086,0.206,0.173,0.348,0.247s0.281,0.132,0.429,0.185c0.151,0.05,0.258,0.084,0.323,0.096
		c0.331,0.235,0.693,0.544,1.088,0.929c0.394,0.384,0.812,0.78,1.246,1.19c0.437,0.396,0.881,0.76,1.334,1.093
		c0.454,0.335,0.897,0.538,1.343,0.634c0.443,0.087,0.878,0.026,1.299-0.188c0.421-0.211,0.819-0.666,1.201-1.358h0.391
		c0.065,0.494-0.017,0.947-0.232,1.371c-0.225,0.421-0.536,0.742-0.938,0.975c-0.408,0.232-0.871,0.355-1.396,0.369
		C135.173,53.382,134.642,53.239,134.118,52.917z"/>
	<path class="st2" d="M128.411,44.798c0.017,0.064,0.029,0.185,0.049,0.355c0.017,0.172,0.04,0.358,0.06,0.545
		c0.023,0.187,0.046,0.371,0.064,0.53c0.013,0.166,0.022,0.28,0.022,0.347c0.711-0.279,1.327-0.72,1.858-1.31
		c0.521-0.59,0.953-1.23,1.281-1.916c0.328-0.683,0.547-1.366,0.654-2.047c0.104-0.682,0.104-1.248-0.015-1.695
		c-0.113-0.439-0.357-0.718-0.726-0.826c-0.369-0.106-0.873,0.064-1.5,0.51c-0.589,0.429-1.022,0.843-1.292,1.243
		c-0.272,0.407-0.454,0.829-0.543,1.261c-0.095,0.433-0.111,0.895-0.06,1.384C128.312,43.664,128.362,44.206,128.411,44.798z"/>
	<g>
		<g>
			<path class="st1" d="M147.582,49.589c-0.141,0.068-0.35,0.204-0.643,0.429s-0.654,0.494-1.065,0.807
				c-0.415,0.31-0.833,0.586-1.264,0.841c-0.425,0.24-0.844,0.419-1.253,0.516c-0.414,0.101-0.763,0.048-1.043-0.146
				c-0.374-0.267-0.668-0.538-0.864-0.814c-0.193-0.283-0.334-0.58-0.419-0.891c-0.079-0.312-0.124-0.646-0.124-0.999
				c0-0.352,0.021-0.747,0.048-1.178c0.023-0.363,0.142-0.666,0.359-0.915c0.225-0.241,0.492-0.483,0.805-0.725
				c0.312-0.242,0.645-0.495,0.988-0.752c0.347-0.267,0.658-0.59,0.936-0.977c0.283-0.386,0.503-0.861,0.674-1.421
				c0.161-0.558,0.21-1.244,0.145-2.053c-0.032-0.05-0.098-0.112-0.188-0.206c-0.086-0.095-0.185-0.187-0.28-0.285
				c-0.099-0.096-0.194-0.198-0.285-0.285c-0.091-0.084-0.161-0.148-0.207-0.183c-0.497-0.212-0.913-0.248-1.25-0.102
				c-0.338,0.148-0.631,0.407-0.866,0.766c-0.234,0.359-0.438,0.795-0.588,1.29c-0.158,0.506-0.288,1.006-0.399,1.503
				c-0.109,0.489-0.206,0.941-0.308,1.34c-0.1,0.407-0.204,0.69-0.319,0.855c-0.031,0.05-0.146,0.122-0.334,0.223
				c-0.192,0.104-0.337,0.146-0.433,0.146c-0.706,0.114-1.242,0.24-1.604,0.373c-0.364,0.13-0.591,0.263-0.678,0.379
				c-0.092,0.128-0.078,0.238,0.034,0.354c0.118,0.102,0.311,0.187,0.582,0.238c0.271,0.059,0.587,0.095,0.951,0.103
				c0.362,0.012,0.732-0.017,1.11-0.085c0.047,0.574,0.093,1.148,0.123,1.704c0.029,0.556,0.123,1.081,0.27,1.572
				c0.149,0.5,0.389,0.955,0.708,1.362c0.32,0.411,0.791,0.752,1.417,1.016c0.694,0.293,1.313,0.389,1.866,0.265
				c0.553-0.129,1.038-0.38,1.471-0.759c0.426-0.377,0.795-0.838,1.111-1.38c0.315-0.548,0.583-1.09,0.818-1.631
				C147.709,49.625,147.709,49.525,147.582,49.589z M141.428,44.918c0.051-0.242,0.081-0.407,0.103-0.489
				c0.213-0.759,0.445-1.349,0.714-1.768c0.266-0.421,0.516-0.71,0.751-0.854c0.24-0.148,0.448-0.179,0.62-0.086
				c0.168,0.09,0.261,0.274,0.261,0.533c0,0.263-0.104,0.605-0.308,1.023c-0.205,0.425-0.556,0.881-1.049,1.372
				c-0.034,0.032-0.099,0.086-0.191,0.16c-0.084,0.074-0.181,0.15-0.28,0.223c-0.098,0.07-0.2,0.148-0.299,0.223
				c-0.101,0.07-0.17,0.129-0.219,0.167c-0.016,0.012-0.049,0.016-0.087,0.016c-0.039,0-0.071-0.004-0.088-0.016
				C141.353,45.325,141.379,45.171,141.428,44.918z"/>
		</g>
		<g>
			<path class="st5" d="M147.582,49.589c-0.141,0.068-0.35,0.204-0.643,0.429s-0.654,0.494-1.065,0.807
				c-0.415,0.31-0.833,0.586-1.264,0.841c-0.425,0.24-0.844,0.419-1.253,0.516c-0.414,0.101-0.763,0.048-1.043-0.146
				c-0.374-0.267-0.668-0.538-0.864-0.814c-0.193-0.283-0.334-0.58-0.419-0.891c-0.079-0.312-0.124-0.646-0.124-0.999
				c0-0.352,0.021-0.747,0.048-1.178c0.023-0.363,0.142-0.666,0.359-0.915c0.225-0.241,0.492-0.483,0.805-0.725
				c0.312-0.242,0.645-0.495,0.988-0.752c0.347-0.267,0.658-0.59,0.936-0.977c0.283-0.386,0.503-0.861,0.674-1.421
				c0.161-0.558,0.21-1.244,0.145-2.053c-0.032-0.05-0.098-0.112-0.188-0.206c-0.086-0.095-0.185-0.187-0.28-0.285
				c-0.099-0.096-0.194-0.198-0.285-0.285c-0.091-0.084-0.161-0.148-0.207-0.183c-0.497-0.212-0.913-0.248-1.25-0.102
				c-0.338,0.148-0.631,0.407-0.866,0.766c-0.234,0.359-0.438,0.795-0.588,1.29c-0.158,0.506-0.288,1.006-0.399,1.503
				c-0.109,0.489-0.206,0.941-0.308,1.34c-0.1,0.407-0.204,0.69-0.319,0.855c-0.031,0.05-0.146,0.122-0.334,0.223
				c-0.192,0.104-0.337,0.146-0.433,0.146c-0.706,0.114-1.242,0.24-1.604,0.373c-0.364,0.13-0.591,0.263-0.678,0.379
				c-0.092,0.128-0.078,0.238,0.034,0.354c0.118,0.102,0.311,0.187,0.582,0.238c0.271,0.059,0.587,0.095,0.951,0.103
				c0.362,0.012,0.732-0.017,1.11-0.085c0.047,0.574,0.093,1.148,0.123,1.704c0.029,0.556,0.123,1.081,0.27,1.572
				c0.149,0.5,0.389,0.955,0.708,1.362c0.32,0.411,0.791,0.752,1.417,1.016c0.694,0.293,1.313,0.389,1.866,0.265
				c0.553-0.129,1.038-0.38,1.471-0.759c0.426-0.377,0.795-0.838,1.111-1.38c0.315-0.548,0.583-1.09,0.818-1.631
				C147.709,49.625,147.709,49.525,147.582,49.589z M141.428,44.918c0.051-0.242,0.081-0.407,0.103-0.489
				c0.213-0.759,0.445-1.349,0.714-1.768c0.266-0.421,0.516-0.71,0.751-0.854c0.24-0.148,0.448-0.179,0.62-0.086
				c0.168,0.09,0.261,0.274,0.261,0.533c0,0.263-0.104,0.605-0.308,1.023c-0.205,0.425-0.556,0.881-1.049,1.372
				c-0.034,0.032-0.099,0.086-0.191,0.16c-0.084,0.074-0.181,0.15-0.28,0.223c-0.098,0.07-0.2,0.148-0.299,0.223
				c-0.101,0.07-0.17,0.129-0.219,0.167c-0.016,0.012-0.049,0.016-0.087,0.016c-0.039,0-0.071-0.004-0.088-0.016
				C141.353,45.325,141.379,45.171,141.428,44.918z"/>
		</g>
	</g>
	<path class="st6" d="M156.445,52.917c-0.661-0.371-1.173-0.759-1.544-1.138c-0.374-0.39-0.72-0.771-1.053-1.144
		c-0.331-0.369-0.706-0.725-1.132-1.062c-0.426-0.339-1.022-0.636-1.779-0.898c-0.116,0.325-0.202,0.716-0.269,1.161
		c-0.068,0.443-0.127,0.894-0.167,1.347c-0.04,0.451-0.068,0.875-0.099,1.284c-0.021,0.405-0.054,0.71-0.082,0.925
		c-0.216,0.265-0.423,0.377-0.618,0.341c-0.195-0.028-0.375-0.133-0.533-0.301c-0.156-0.181-0.289-0.382-0.393-0.624
		c-0.114-0.232-0.171-0.417-0.188-0.552c0.372-0.893,0.639-1.785,0.775-2.692c0.143-0.904,0.21-1.838,0.201-2.786
		c-0.014-0.959-0.059-1.95-0.156-2.966c-0.103-1.023-0.184-2.095-0.249-3.214c0.076-0.132,0.192-0.238,0.333-0.321
		c0.133-0.08,0.289-0.092,0.451-0.023c0.218-0.243,0.5-0.52,0.845-0.827c0.348-0.303,0.718-0.585,1.122-0.838
		c0.404-0.259,0.829-0.47,1.257-0.632c0.435-0.163,0.847-0.235,1.229-0.211c0.373,0.024,0.707,0.173,0.994,0.436
		c0.289,0.259,0.504,0.684,0.633,1.281c0.131,0.854,0.107,1.649-0.074,2.394c-0.183,0.746-0.471,1.448-0.877,2.112
		c-0.405,0.671-0.91,1.292-1.519,1.882c-0.613,0.58-1.284,1.146-2.025,1.688c-0.048,0.103-0.025,0.194,0.06,0.285
		c0.091,0.086,0.209,0.173,0.349,0.247c0.138,0.074,0.29,0.132,0.433,0.185c0.151,0.05,0.257,0.084,0.322,0.096
		c0.328,0.235,0.69,0.544,1.088,0.929c0.393,0.384,0.807,0.78,1.245,1.19c0.432,0.396,0.877,0.76,1.33,1.093
		c0.455,0.335,0.903,0.538,1.35,0.634c0.444,0.087,0.876,0.026,1.292-0.188c0.421-0.211,0.82-0.666,1.206-1.358h0.388
		c0.071,0.494-0.013,0.947-0.23,1.371c-0.227,0.421-0.535,0.742-0.942,0.975c-0.405,0.232-0.872,0.355-1.391,0.369
		C157.5,53.382,156.968,53.239,156.445,52.917z"/>
	<path class="st2" d="M150.738,44.798c0.018,0.064,0.03,0.185,0.05,0.355c0.014,0.172,0.035,0.358,0.061,0.545
		c0.024,0.187,0.045,0.371,0.065,0.53c0.014,0.166,0.022,0.28,0.022,0.347c0.713-0.279,1.326-0.72,1.855-1.31
		c0.521-0.59,0.95-1.23,1.282-1.916c0.325-0.683,0.543-1.366,0.651-2.047c0.11-0.682,0.105-1.248-0.01-1.695
		c-0.118-0.439-0.361-0.718-0.729-0.826c-0.371-0.106-0.871,0.064-1.494,0.51c-0.591,0.429-1.025,0.843-1.301,1.243
		c-0.27,0.407-0.453,0.829-0.543,1.261c-0.084,0.433-0.108,0.895-0.057,1.384C150.641,43.664,150.691,44.206,150.738,44.798z"/>
	<path class="st0" d="M159.806,52.997c-0.035-0.101-0.062-0.43-0.076-1.001c-0.02-0.562-0.029-1.254-0.037-2.059
		c-0.011-0.807-0.007-1.688,0.01-2.634c0.025-0.949,0.038-1.832,0.062-2.666c0.028-0.835,0.062-1.551,0.099-2.165
		c0.048-0.604,0.09-0.993,0.146-1.159c0.093-0.049,0.2-0.049,0.319,0c0.109,0.05,0.217,0.118,0.304,0.196
		c0.091,0.084,0.169,0.185,0.239,0.297c0.065,0.118,0.099,0.215,0.099,0.301v10.89c0,0.179-0.052,0.317-0.148,0.409
		c-0.099,0.091-0.224,0.137-0.362,0.137c-0.135,0-0.27-0.046-0.394-0.137C159.94,53.315,159.854,53.176,159.806,52.997z"/>
	<path class="st6" d="M160.005,37.459c-0.021-0.046-0.029-0.12-0.042-0.209c-0.011-0.088-0.011-0.19-0.011-0.295
		c0-0.107,0-0.204,0.011-0.295c0.013-0.094,0.02-0.154,0.042-0.192c0.127-0.06,0.279-0.114,0.441-0.168
		c0.168-0.051,0.335-0.053,0.518-0.022c0.277,0.361,0.457,0.654,0.533,0.877c0.07,0.223,0.077,0.394,0.016,0.521
		c-0.073,0.116-0.184,0.196-0.341,0.219c-0.156,0.024-0.316,0.024-0.479-0.006c-0.169-0.04-0.314-0.097-0.458-0.165
		C160.093,37.646,160.019,37.564,160.005,37.459z"/>
	<path class="st0" d="M162.548,53.393c-0.038-0.034-0.074-0.103-0.126-0.201c-0.046-0.094-0.086-0.158-0.099-0.194
		c0.053-0.217,0.099-0.694,0.161-1.448c0.055-0.751,0.123-1.611,0.196-2.604c0.073-0.982,0.159-2.016,0.271-3.087
		c0.109-1.069,0.228-2.024,0.36-2.861c0.126-0.837,0.285-1.484,0.469-1.942c0.179-0.453,0.385-0.562,0.616-0.328
		c0.495,0.36,0.953,0.82,1.385,1.368c0.423,0.552,0.842,1.149,1.234,1.789c0.396,0.64,0.77,1.309,1.146,1.988
		c0.369,0.684,0.76,1.338,1.16,1.954c0.406,0.614,0.831,1.172,1.284,1.675c0.454,0.504,0.949,0.896,1.475,1.174h0.173
		c0.027-0.392,0.066-0.883,0.103-1.467c0.045-0.588,0.094-1.229,0.146-1.918c0.051-0.688,0.098-1.406,0.146-2.136
		c0.048-0.73,0.11-1.443,0.186-2.147c0.069-0.702,0.153-1.348,0.234-1.938c0.078-0.594,0.169-1.096,0.27-1.507
		c0.017-0.032,0.053-0.104,0.113-0.213c0.056-0.104,0.116-0.212,0.195-0.314c0.069-0.112,0.149-0.197,0.237-0.265
		c0.08-0.066,0.163-0.066,0.247,0l1.157,1.189c0.05,0.05,0.023,0.146-0.088,0.305c-0.109,0.158-0.232,0.335-0.378,0.523
		c-0.149,0.185-0.299,0.367-0.445,0.538c-0.149,0.177-0.236,0.307-0.246,0.387c-0.117,0.43-0.219,0.947-0.3,1.545
		c-0.083,0.598-0.149,1.24-0.197,1.924c-0.051,0.683-0.093,1.391-0.118,2.112c-0.038,0.725-0.064,1.427-0.095,2.109
		c-0.021,0.689-0.032,1.336-0.048,1.943c-0.01,0.608-0.023,1.13-0.036,1.573c-0.595-0.01-1.163-0.19-1.705-0.542
		c-0.54-0.339-1.064-0.803-1.568-1.368c-0.505-0.567-0.987-1.212-1.458-1.926c-0.474-0.714-0.925-1.438-1.357-2.171
		c-0.438-0.736-0.86-1.458-1.27-2.162c-0.417-0.711-0.811-1.337-1.189-1.88h-0.224c-0.065,0-0.12,0.176-0.16,0.533
		c-0.04,0.355-0.083,0.812-0.11,1.366c-0.035,0.556-0.065,1.202-0.097,1.918c-0.034,0.719-0.081,1.437-0.139,2.146
		c-0.062,0.719-0.129,1.404-0.207,2.057c-0.087,0.647-0.185,1.197-0.297,1.631c-0.119,0.451-0.255,0.763-0.426,0.943
		C162.969,53.648,162.775,53.619,162.548,53.393z"/>
	<g>
		<path class="st4" d="M87.563,49.825c-0.039-0.13-0.061-0.311-0.067-0.535c-0.006-0.223,0-0.472,0.022-0.743
			c0.02-0.276,0.042-0.56,0.073-0.862c0.025-0.299,0.059-0.594,0.09-0.877c0.034-0.286,0.056-0.552,0.069-0.796
			c0.016-0.247,0.013-0.449,0.002-0.612c-0.005-0.118-0.005-0.297-0.006-0.531c0.001-0.237,0.001-0.502,0-0.795
			c-0.002-0.299-0.005-0.607-0.009-0.935c-0.001-0.329,0-0.642,0.005-0.937c0.015-0.3,0.027-0.574,0.045-0.825
			c0.02-0.251,0.05-0.439,0.082-0.573c0.179-0.095,0.321-0.053,0.419,0.11c0.1,0.16,0.169,0.389,0.205,0.686
			c0.036,0.287,0.048,0.62,0.039,0.987c-0.013,0.365-0.027,0.712-0.052,1.035c-0.022,0.325-0.05,0.598-0.078,0.82
			c-0.028,0.221-0.042,0.337-0.042,0.344c0,0.75-0.014,1.486-0.053,2.213c-0.035,0.729-0.035,1.462,0.003,2.208
			c0.103,0.157,0.155,0.321,0.148,0.494c-0.004,0.172-0.049,0.307-0.138,0.401c-0.08,0.098-0.193,0.136-0.331,0.11
			C87.854,50.185,87.705,50.056,87.563,49.825z"/>
		<path class="st4" d="M83.213,44.928c0.143-0.04,0.335-0.063,0.582-0.067c0.244-0.011,0.512-0.005,0.813,0.012
			c0.303,0.018,0.613,0.04,0.948,0.068c0.327,0.025,0.648,0.054,0.959,0.086c0.311,0.028,0.601,0.05,0.873,0.062
			c0.269,0.012,0.493,0.006,0.667-0.006c0.131-0.007,0.325-0.007,0.583-0.009s0.545-0.004,0.873-0.008
			c0.323-0.006,0.662-0.01,1.019-0.018c0.36-0.004,0.702-0.006,1.026,0c0.327,0.008,0.626,0.02,0.901,0.04
			c0.275,0.014,0.482,0.044,0.631,0.072c0.104,0.181,0.064,0.322-0.112,0.421c-0.179,0.104-0.425,0.173-0.748,0.209
			c-0.316,0.04-0.677,0.056-1.08,0.052c-0.4-0.008-0.779-0.021-1.131-0.044c-0.359-0.022-0.659-0.048-0.9-0.072
			c-0.241-0.026-0.37-0.04-0.376-0.04c-0.822,0.008-1.627,0-2.42-0.034c-0.797-0.03-1.603-0.022-2.416,0.021
			c-0.172,0.104-0.349,0.154-0.539,0.152c-0.186-0.004-0.336-0.049-0.442-0.133c-0.108-0.084-0.153-0.194-0.125-0.333
			C82.819,45.221,82.963,45.074,83.213,44.928z"/>
	</g>
</g>
</svg>
